<?xml version="1.0" encoding="utf-8"?>
<!-- Generator: Adobe Illustrator 17.0.0, SVG Export Plug-In . SVG Version: 6.00 Build 0)  -->
<!DOCTYPE svg PUBLIC "-//W3C//DTD SVG 1.1//EN" "http://www.w3.org/Graphics/SVG/1.1/DTD/svg11.dtd">
<svg version="1.1" id="图层_1" xmlns="http://www.w3.org/2000/svg" xmlns:xlink="http://www.w3.org/1999/xlink" x="0px" y="0px"
	 width="300px" height="55px" viewBox="0.5 0.5 300 55" enable-background="new 0.5 0.5 300 55" xml:space="preserve">
<g id="参考线">
</g>
<g id="create">
	<path id="add-folder-2-icon" fill="#717B94" d="M25.5,19.5h-2v-2h-2v2h-2v2h2v2h2v-2h2V19.5z M17.5,23.5h-12v-17h6.696l1.645,1.638
		C14.296,8.591,14.912,8.5,15.555,8.5H25.5v6h-2v-4h-7.945c-1.183,0-2.296-0.108-3.134-0.943L11.365,8.5H7.5v13h10V23.5z"/>
</g>
<g id="recycle">
	<polygon fill="#717B94" points="51.5,22.5 39.5,22.5 39.5,10.5 37.5,10.5 37.5,24.5 53.5,24.5 53.5,10.5 51.5,10.5 	"/>
	<path fill="#717B94" d="M48.5,6.5c-0.823,0-2-1.222-2-2h-2c0,0.778-1.177,2-2,2h-5v2h16v-2H48.5z"/>
	<path fill="#717B94" d="M44.5,19.5c0,0.552-0.448,1-1,1l0,0c-0.552,0-1-0.448-1-1v-7c0-0.552,0.448-1,1-1l0,0c0.552,0,1,0.448,1,1
		V19.5z"/>
	<path fill="#717B94" d="M48.5,19.5c0,0.552-0.448,1-1,1l0,0c-0.552,0-1-0.448-1-1v-7c0-0.552,0.448-1,1-1l0,0c0.552,0,1,0.448,1,1
		V19.5z"/>
	<polygon fill="#717B94" points="81.5,22.5 69.5,22.5 69.5,10.5 67.5,10.5 67.5,24.5 83.5,24.5 83.5,10.5 81.5,10.5 	"/>
	<path fill="#717B94" d="M78.907,5.478c-0.794-0.217-1.606-1.707-1.4-2.457l-1.929-0.529c-0.206,0.75-1.664,1.618-2.457,1.4
		l-4.822-1.321L67.769,4.5L83.2,8.729L83.729,6.8L78.907,5.478z"/>
	<path fill="#717B94" d="M74.5,19.5c0,0.552-0.448,1-1,1l0,0c-0.552,0-1-0.448-1-1v-7c0-0.552,0.448-1,1-1l0,0c0.552,0,1,0.448,1,1
		V19.5z"/>
	<path fill="#717B94" d="M78.5,19.5c0,0.552-0.448,1-1,1l0,0c-0.552,0-1-0.448-1-1v-7c0-0.552,0.448-1,1-1l0,0c0.552,0,1,0.448,1,1
		V19.5z"/>
</g>
<path fill="#767E9C" d="M9.543,53.5c1.014,0,6.2-3,12.037,0h5.672H27.5V32.61c0-0.107-0.14-0.11-0.247-0.11h-7.515l-10.4,21H9.543z"
	/>
<path fill="#767E9C" d="M21.679,53.5l-10.377-21H3.788c-0.107,0-0.288,0.003-0.288,0.11V53.5h0.288h5.755c1.014,0,6.2-3,12.037,0
	H21.679z"/>
<path fill="#60687C" d="M9.338,53.5h0.205c1.014,0,6.2-3,12.037,0h0.099l-6.164-12.786L9.338,53.5z"/>
<g>
	<path fill="#76809B" d="M54.836,38.828l1.056-5.778l-5.798,1.034c-1.391-0.687-2.957-1.074-4.614-1.074
		c-1.651,0-3.212,0.384-4.599,1.067l-5.788-1.007l1.017,5.788l0,0c-0.677,1.382-1.057,2.936-1.057,4.579
		c0,5.759,4.669,10.428,10.428,10.428s10.428-4.669,10.428-10.428C55.908,41.783,55.522,40.218,54.836,38.828z"/>
	<path fill="#FFFFFF" d="M51.901,38.878c-2.514,0-4.552,2.038-4.552,4.552c0,2.514,2.038,4.552,4.552,4.552
		c2.514,0,4.552-2.038,4.552-4.552C56.453,40.916,54.415,38.878,51.901,38.878z M51.896,46.389c-1.604,0-2.904-1.3-2.904-2.904
		s1.3-2.904,2.904-2.904s2.904,1.3,2.904,2.904S53.5,46.389,51.896,46.389z"/>
	<path fill="#FFFFFF" d="M39.003,38.878c-2.514,0-4.552,2.038-4.552,4.552c0,2.514,2.038,4.552,4.552,4.552
		c2.514,0,4.552-2.038,4.552-4.552C43.555,40.916,41.517,38.878,39.003,38.878z M38.998,46.369c-1.604,0-2.904-1.3-2.904-2.904
		s1.3-2.904,2.904-2.904s2.904,1.3,2.904,2.904S40.602,46.369,38.998,46.369z"/>
</g>
<path fill-rule="evenodd" clip-rule="evenodd" fill="#76809B" d="M86.888,31.842c0,0-2.398,0.852-7.73,0.852
	c-2.871,0-7.383,0-7.383,0s-5.806-0.631-5.995,4.828c-0.189,5.459,0,11.043,0,11.864s0.126,3.818-0.41,4.354
	c-0.536,0.536,1.988-0.82,5.837-0.757c3.849,0.063,10.98-0.095,10.98-0.095s3.926,0.273,4.354-4.922
	C86.983,42.602,85.91,35.786,86.888,31.842z"/>
<path fill-rule="evenodd" clip-rule="evenodd" fill="#FFFFFF" d="M82.393,44.851c-0.244-0.239-0.424-0.414-0.556-0.543
	c-0.036-0.017-0.066-0.039-0.091-0.067c-4.761-2.931-1.457-1.898,0.413-2.666c1.871-0.769,1.237-3.208,1.237-3.208
	s-4.913-0.201-4.779,0.167c0.134,0.368,0.602,3.108-2.473,2.506c-3.075-0.602-3.409-4.612-3.409-4.612l-5.648-0.167
	c0,0-0.501,2.874,3.509,4.913c3.564,1.812,0.714,1.749-0.55,1.948c-0.01,0.004-0.019,0.009-0.029,0.012
	c-0.051,0.015-0.105,0.021-0.158,0.022c-0.031,0.007-0.061,0.014-0.088,0.021c-0.029,0.015-0.061,0.025-0.097,0.031
	c-0.004,0.002-0.009,0.003-0.013,0.005c-0.835,0.334-3.175,0.602-3.542,3.442l4.411-0.067c0,0,0.568-2.707,2.339-2.974
	c1.771-0.267,5.38,1.003,5.815,4.979l5.481,0.134C84.164,48.728,83.897,46.321,82.393,44.851z"/>
<path fill="#707995" d="M108.368,13.764c-1.853-1.464-4.868,0.027-4.868,2.736c0,0,0.091-0.001,0.091,0h0.896l-1.987,2l-2-2h2
	c0,0-1,0-1,0C101.5,13.124,106.093,11.165,108.368,13.764z"/>
<path fill="#707995" d="M102.632,18.961c1.853,1.464,4.868,0.247,4.868-2.461c0-0.001-0.021,0-0.021,0H106.5l2-2l2,2h-1c0,0,0,0,0,0
	C109.5,19.875,104.907,21.56,102.632,18.961z"/>
<polygon fill="#717B94" points="111.5,22.5 99.5,22.5 99.5,10.5 97.5,10.5 97.5,24.5 113.5,24.5 113.5,10.5 111.5,10.5 "/>
<path fill="#717B94" d="M108.5,6.5c-0.823,0-2-1.222-2-2h-2c0,0.778-1.177,2-2,2h-5v2h16v-2H108.5z"/>
</svg>
