<svg xmlns="http://www.w3.org/2000/svg" id="km-cat" viewBox="0 0 1200 1200" width="500" height="500">
    <g id="cat-face">
        <path d="M1066.769,368.482L1119.5,80L830,131.611C760.552,97.29,682.35,77.999,599.641,77.999
            c-82.424,0-160.371,19.161-229.641,53.26L81,81l50.769,289l0,0c-33.792,69.019-52.77,146.612-52.77,228.641
            c0,287.542,233.099,520.642,520.642,520.642s520.642-233.099,520.642-520.642C1120.282,516.011,1101.028,437.88,1066.769,368.482z"
            />
    </g>
    <g id="cat-eye">
        <path style="fill:#FFFFFF;" d="M920.255,371C794.746,371,693,472.746,693,598.255s101.746,227.255,227.255,227.255
            s227.255-101.746,227.255-227.255S1045.765,371,920.255,371z M920,746c-80.081,0-145-64.919-145-145s64.919-145,145-145
            s145,64.919,145,145S1000.081,746,920,746z"/>
        <path style="fill:#FFFFFF;" d="M276.255,371C150.746,371,49,472.746,49,598.255s101.746,227.255,227.255,227.255
            s227.255-101.746,227.255-227.255S401.765,371,276.255,371z M276,745c-80.081,0-145-64.919-145-145s64.919-145,145-145
            s145,64.919,145,145S356.081,745,276,745z"/>
    </g>
</svg>