<?xml version="1.0" encoding="iso-8859-1"?>
<!-- Generator: Adobe Illustrator 17.0.0, SVG Export Plug-In . SVG Version: 6.00 Build 0)  -->
<!DOCTYPE svg PUBLIC "-//W3C//DTD SVG 1.1//EN" "http://www.w3.org/Graphics/SVG/1.1/DTD/svg11.dtd">
<svg version="1.1" xmlns="http://www.w3.org/2000/svg" xmlns:xlink="http://www.w3.org/1999/xlink" x="0px" y="0px" width="25px"
	 height="25px" viewBox="0 0 25 25" style="enable-background:new 0 0 25 25;" xml:space="preserve">
<g id="&#x56FE;&#x5C42;_2">
	<path style="fill:#3A4859;" d="M6.196,24c1.062,0,6.493-3,12.605,0h5.94C24.853,24,25,24.359,25,24.247V2.112
		C25,2,24.853,2,24.741,2h-7.869L5.981,24H6.196z"/>
</g>
<g id="&#x56FE;&#x5C42;_1">
	<path style="fill:#474D54;" d="M18.905,24L8.038,2H0.169C0.057,2,0,2,0,2.112v22.135C0,24.359,0.057,24,0.169,24h6.027
		c1.062,0,6.493-3,12.605,0H18.905z"/>
</g>
<g id="&#x56FE;&#x5C42;_2_x5F_&#x590D;&#x5236;">
</g>
<g id="&#x56FE;&#x5C42;_1_x5F_&#x590D;&#x5236;">
	<path style="fill:#2C363F;" d="M5.981,24h0.215c1.062,0,6.493-3,12.605,0h0.103L12.45,10.611L5.981,24z"/>
</g>
<g id="&#x56FE;&#x5C42;_3" style="display:none;">
	
		<image style="display:inline;overflow:visible;" width="512" height="512" xlink:href="754EB0E7B73A025C.png"  transform="matrix(0.9999 0 0 0.9999 -243 -243)">
	</image>
</g>
</svg>
