<?xml version="1.0" encoding="utf-8"?>
<!-- Generator: Adobe Illustrator 16.0.4, SVG Export Plug-In . SVG Version: 6.00 Build 0)  -->
<!DOCTYPE svg PUBLIC "-//W3C//DTD SVG 1.1 Tiny//EN" "http://www.w3.org/Graphics/SVG/1.1/DTD/svg11-tiny.dtd" [
	<!ENTITY ns_flows "http://ns.adobe.com/Flows/1.0/">
	<!ENTITY ns_extend "http://ns.adobe.com/Extensibility/1.0/">
	<!ENTITY ns_ai "http://ns.adobe.com/AdobeIllustrator/10.0/">
	<!ENTITY ns_graphs "http://ns.adobe.com/Graphs/1.0/">
]>
<svg version="1.1" baseProfile="tiny" id="Layer_1" xmlns:x="&ns_extend;" xmlns:i="&ns_ai;" xmlns:graph="&ns_graphs;"
	 xmlns="http://www.w3.org/2000/svg" xmlns:xlink="http://www.w3.org/1999/xlink" xmlns:a="http://ns.adobe.com/AdobeSVGViewerExtensions/3.0/"
	 x="0px" y="0px" width="42px" height="42px" viewBox="-0.5 0.5 42 42" xml:space="preserve">
<path d="M11.5,30.49v8.996c0,1.217,0.938,1.045,1.25,0.795c0.384-0.308,10.75-9.791,10.75-9.791h13c2.471,0,3-0.529,3-2.999V6.859
	c0-2.899-0.5-3.359-3-3.359h-32c-2.46,0-3,0.5-3,2.999v20.992c0,2.429,0.42,2.999,3,2.999H11.5z M13.76,18.994
	c0,1.52-1.24,2.759-2.76,2.759s-2.76-1.239-2.76-2.759c0-1.519,1.24-2.759,2.76-2.759S13.76,17.476,13.76,18.994z M22.76,18.994
	c0,1.52-1.24,2.759-2.76,2.759c-1.52,0-2.76-1.239-2.76-2.759c0-1.519,1.24-2.759,2.76-2.759
	C21.52,16.235,22.76,17.476,22.76,18.994z M31.76,18.994c0,1.52-1.24,2.759-2.76,2.759s-2.76-1.239-2.76-2.759
	c0-1.519,1.24-2.759,2.76-2.759S31.76,17.476,31.76,18.994z" fill="#C6C8C8"/>
</svg>
